# xmcd CD database file
#
# Track frame offsets:
#	183
#	12175
#	24770
#	37228
#	51340
#	64408
#	75798
#	91650
#	101068
#	112730
#	127408
#	138225
#	149128
#	163120
#	177095
#	193045
#
# Disc length: 2798 seconds
#
# Revision: 0
# Processed by: cddbd v1.5PL3 Copyright (c) Steve Scherf et al.
# Submitted via: CDex 1.51
#
DISCID=d90aec10
DTITLE=Bob Brozman - Devil's slide
DYEAR=1988
DGENRE=Blues
TTITLE0=Devil's slide
TTITLE1=Dinah
TTITLE2=Naivete
TTITLE3=Uncle Joe
TTITLE4=Stones in my passway
TTITLE5=You're driving me crazy
TTITLE6=Melloroonie
TTITLE7=Cinemascope
TTITLE8=Twilight echoes
TTITLE9='Cause I feel low down
TTITLE10=Milenburg joys
TTITLE11=Death
TTITLE12=Deserted blues
TTITLE13=Soakin' wet with the blues
TTITLE14=Texas bounce
TTITLE15=Honeymoon blues
EXTD=YEAR: 1988
EXTT0=
EXTT1=
EXTT2=
EXTT3=
EXTT4=
EXTT5=
EXTT6=
EXTT7=
EXTT8=
EXTT9=
EXTT10=
EXTT11=
EXTT12=
EXTT13=
EXTT14=
EXTT15=
PLAYORDER=
